<mxfile host="app.diagrams.net" modified="2022-10-20T10:29:19.554Z" agent="5.0 (Windows NT 10.0; Win64; x64) AppleWebKit/537.36 (KHTML, like Gecko) Chrome/106.0.0.0 Safari/537.36" etag="sfBUN-cratbuVlRGyJDJ" version="20.4.1" type="github">
  <diagram id="OInQUNuNO3AYRQuPPQoJ" name="第 1 页">
    <mxGraphModel dx="1688" dy="677" grid="1" gridSize="10" guides="1" tooltips="1" connect="1" arrows="1" fold="1" page="1" pageScale="1" pageWidth="1100" pageHeight="850" math="0" shadow="0">
      <root>
        <mxCell id="0" />
        <mxCell id="1" parent="0" />
        <mxCell id="x6n-TaQfmUCHtvgikXO5-33" value="&lt;span style=&quot;font-weight: 400;&quot;&gt;API&lt;/span&gt;" style="rounded=0;whiteSpace=wrap;html=1;dashed=1;strokeWidth=2;fillColor=none;verticalAlign=top;fontStyle=1;strokeColor=#0000FF;" parent="1" vertex="1">
          <mxGeometry x="20" y="20" width="1960" height="1169" as="geometry" />
        </mxCell>
        <mxCell id="1uEvt_R6zlW470bMk80g-108" value="&lt;span style=&quot;font-weight: 400;&quot;&gt;application&amp;nbsp;module&lt;/span&gt;" style="rounded=0;whiteSpace=wrap;html=1;dashed=1;strokeWidth=2;fillColor=none;verticalAlign=top;fontStyle=1" parent="1" vertex="1">
          <mxGeometry x="50" y="50" width="930" height="1010" as="geometry" />
        </mxCell>
        <mxCell id="O0PW9jx7jIYoNXfm1WO1-1" value="&lt;span style=&quot;font-weight: 400;&quot;&gt;application&lt;/span&gt;" style="rounded=0;whiteSpace=wrap;html=1;dashed=1;strokeWidth=2;fillColor=none;verticalAlign=top;fontStyle=1;opacity=40;" vertex="1" parent="1">
          <mxGeometry x="70" y="90" width="430" height="300" as="geometry" />
        </mxCell>
        <mxCell id="O0PW9jx7jIYoNXfm1WO1-2" value="&lt;span style=&quot;font-weight: 400;&quot;&gt;protal&lt;/span&gt;" style="rounded=0;whiteSpace=wrap;html=1;dashed=1;strokeWidth=2;fillColor=none;verticalAlign=top;fontStyle=1;opacity=20;" vertex="1" parent="1">
          <mxGeometry x="90" y="120" width="390" height="250" as="geometry" />
        </mxCell>
        <mxCell id="O0PW9jx7jIYoNXfm1WO1-3" value="page filter" style="rounded=0;whiteSpace=wrap;html=1;fontColor=#000000;fillColor=none;" vertex="1" parent="1">
          <mxGeometry x="100" y="150" width="110" height="60" as="geometry" />
        </mxCell>
        <mxCell id="O0PW9jx7jIYoNXfm1WO1-4" value="add" style="rounded=0;whiteSpace=wrap;html=1;fontColor=#000000;fillColor=none;" vertex="1" parent="1">
          <mxGeometry x="230" y="150" width="110" height="60" as="geometry" />
        </mxCell>
        <mxCell id="O0PW9jx7jIYoNXfm1WO1-5" value="page filter deleted" style="rounded=0;whiteSpace=wrap;html=1;fontColor=#000000;fillColor=none;" vertex="1" parent="1">
          <mxGeometry x="230" y="290" width="110" height="60" as="geometry" />
        </mxCell>
        <mxCell id="O0PW9jx7jIYoNXfm1WO1-6" value="get a deleted application" style="rounded=0;whiteSpace=wrap;html=1;fontColor=#000000;fillColor=none;" vertex="1" parent="1">
          <mxGeometry x="100" y="290" width="110" height="60" as="geometry" />
        </mxCell>
        <mxCell id="O0PW9jx7jIYoNXfm1WO1-7" value="get by id" style="rounded=0;whiteSpace=wrap;html=1;fontColor=#000000;fillColor=none;" vertex="1" parent="1">
          <mxGeometry x="360" y="150" width="110" height="60" as="geometry" />
        </mxCell>
        <mxCell id="O0PW9jx7jIYoNXfm1WO1-8" value="rollback by id" style="rounded=0;whiteSpace=wrap;html=1;fontColor=#000000;fillColor=none;" vertex="1" parent="1">
          <mxGeometry x="360" y="220" width="110" height="60" as="geometry" />
        </mxCell>
        <mxCell id="O0PW9jx7jIYoNXfm1WO1-9" value="update by id" style="rounded=0;whiteSpace=wrap;html=1;fontColor=#000000;fillColor=none;" vertex="1" parent="1">
          <mxGeometry x="100" y="220" width="110" height="60" as="geometry" />
        </mxCell>
        <mxCell id="O0PW9jx7jIYoNXfm1WO1-10" value="delete by id" style="rounded=0;whiteSpace=wrap;html=1;fontColor=#000000;fillColor=none;" vertex="1" parent="1">
          <mxGeometry x="230" y="220" width="110" height="60" as="geometry" />
        </mxCell>
        <mxCell id="O0PW9jx7jIYoNXfm1WO1-11" value="list by applicationNoteList by applicationId" style="rounded=0;whiteSpace=wrap;html=1;fontColor=#000000;fillColor=none;" vertex="1" parent="1">
          <mxGeometry x="360" y="290" width="110" height="60" as="geometry" />
        </mxCell>
        <mxCell id="O0PW9jx7jIYoNXfm1WO1-15" value="&lt;span style=&quot;font-weight: 400;&quot;&gt;current user application&lt;/span&gt;" style="rounded=0;whiteSpace=wrap;html=1;dashed=1;strokeWidth=2;fillColor=none;verticalAlign=top;fontStyle=1;opacity=40;" vertex="1" parent="1">
          <mxGeometry x="520" y="90" width="430" height="230" as="geometry" />
        </mxCell>
        <mxCell id="O0PW9jx7jIYoNXfm1WO1-16" value="&lt;span style=&quot;font-weight: 400;&quot;&gt;web &amp;amp; app&lt;/span&gt;" style="rounded=0;whiteSpace=wrap;html=1;dashed=1;strokeWidth=2;fillColor=none;verticalAlign=top;fontStyle=1;opacity=20;" vertex="1" parent="1">
          <mxGeometry x="540" y="120" width="390" height="180" as="geometry" />
        </mxCell>
        <mxCell id="O0PW9jx7jIYoNXfm1WO1-17" value="list filter" style="rounded=0;whiteSpace=wrap;html=1;fontColor=#000000;fillColor=none;" vertex="1" parent="1">
          <mxGeometry x="550" y="150" width="110" height="60" as="geometry" />
        </mxCell>
        <mxCell id="O0PW9jx7jIYoNXfm1WO1-18" value="add" style="rounded=0;whiteSpace=wrap;html=1;fontColor=#000000;fillColor=none;" vertex="1" parent="1">
          <mxGeometry x="680" y="150" width="110" height="60" as="geometry" />
        </mxCell>
        <mxCell id="O0PW9jx7jIYoNXfm1WO1-19" value="loan rate caculate" style="rounded=0;whiteSpace=wrap;html=1;fontColor=#000000;fillColor=none;" vertex="1" parent="1">
          <mxGeometry x="810" y="150" width="110" height="60" as="geometry" />
        </mxCell>
        <mxCell id="O0PW9jx7jIYoNXfm1WO1-20" value="update by applicationNo" style="rounded=0;whiteSpace=wrap;html=1;fontColor=#000000;fillColor=none;" vertex="1" parent="1">
          <mxGeometry x="550" y="220" width="110" height="60" as="geometry" />
        </mxCell>
        <mxCell id="O0PW9jx7jIYoNXfm1WO1-24" value="delete by applicationNo" style="rounded=0;whiteSpace=wrap;html=1;fontColor=#000000;fillColor=none;" vertex="1" parent="1">
          <mxGeometry x="680" y="220" width="110" height="60" as="geometry" />
        </mxCell>
        <mxCell id="O0PW9jx7jIYoNXfm1WO1-26" value="in-principle approved" style="rounded=0;whiteSpace=wrap;html=1;fontColor=#000000;fillColor=none;" vertex="1" parent="1">
          <mxGeometry x="810" y="220" width="110" height="60" as="geometry" />
        </mxCell>
        <mxCell id="O0PW9jx7jIYoNXfm1WO1-27" value="&lt;span style=&quot;font-weight: 400;&quot;&gt;froms&lt;/span&gt;" style="rounded=0;whiteSpace=wrap;html=1;dashed=1;strokeWidth=2;fillColor=none;verticalAlign=top;fontStyle=1;opacity=40;" vertex="1" parent="1">
          <mxGeometry x="70" y="410" width="430" height="630" as="geometry" />
        </mxCell>
        <mxCell id="O0PW9jx7jIYoNXfm1WO1-28" value="&lt;span style=&quot;font-weight: 400;&quot;&gt;protal&lt;/span&gt;" style="rounded=0;whiteSpace=wrap;html=1;dashed=1;strokeWidth=2;fillColor=none;verticalAlign=top;fontStyle=1;opacity=20;" vertex="1" parent="1">
          <mxGeometry x="90" y="440" width="390" height="460" as="geometry" />
        </mxCell>
        <mxCell id="O0PW9jx7jIYoNXfm1WO1-29" value="page filter" style="rounded=0;whiteSpace=wrap;html=1;fontColor=#000000;fillColor=none;" vertex="1" parent="1">
          <mxGeometry x="100" y="470" width="110" height="60" as="geometry" />
        </mxCell>
        <mxCell id="O0PW9jx7jIYoNXfm1WO1-30" value="add" style="rounded=0;whiteSpace=wrap;html=1;fontColor=#000000;fillColor=none;" vertex="1" parent="1">
          <mxGeometry x="230" y="470" width="110" height="60" as="geometry" />
        </mxCell>
        <mxCell id="O0PW9jx7jIYoNXfm1WO1-33" value="get by id" style="rounded=0;whiteSpace=wrap;html=1;fontColor=#000000;fillColor=none;" vertex="1" parent="1">
          <mxGeometry x="360" y="470" width="110" height="60" as="geometry" />
        </mxCell>
        <mxCell id="O0PW9jx7jIYoNXfm1WO1-34" value="get from history by id" style="rounded=0;whiteSpace=wrap;html=1;fontColor=#000000;fillColor=none;" vertex="1" parent="1">
          <mxGeometry x="100" y="610" width="110" height="60" as="geometry" />
        </mxCell>
        <mxCell id="O0PW9jx7jIYoNXfm1WO1-35" value="update by id" style="rounded=0;whiteSpace=wrap;html=1;fontColor=#000000;fillColor=none;" vertex="1" parent="1">
          <mxGeometry x="100" y="540" width="110" height="60" as="geometry" />
        </mxCell>
        <mxCell id="O0PW9jx7jIYoNXfm1WO1-36" value="delete by id" style="rounded=0;whiteSpace=wrap;html=1;fontColor=#000000;fillColor=none;" vertex="1" parent="1">
          <mxGeometry x="230" y="540" width="110" height="60" as="geometry" />
        </mxCell>
        <mxCell id="O0PW9jx7jIYoNXfm1WO1-37" value="page filter form histories" style="rounded=0;whiteSpace=wrap;html=1;fontColor=#000000;fillColor=none;" vertex="1" parent="1">
          <mxGeometry x="360" y="540" width="110" height="60" as="geometry" />
        </mxCell>
        <mxCell id="O0PW9jx7jIYoNXfm1WO1-38" value="rollback history" style="rounded=0;whiteSpace=wrap;html=1;fontColor=#000000;fillColor=none;" vertex="1" parent="1">
          <mxGeometry x="230" y="610" width="110" height="60" as="geometry" />
        </mxCell>
        <mxCell id="O0PW9jx7jIYoNXfm1WO1-39" value="rollback history" style="rounded=0;whiteSpace=wrap;html=1;fontColor=#000000;fillColor=none;" vertex="1" parent="1">
          <mxGeometry x="360" y="610" width="110" height="60" as="geometry" />
        </mxCell>
        <mxCell id="O0PW9jx7jIYoNXfm1WO1-40" value="update form draft to pending review by id" style="rounded=0;whiteSpace=wrap;html=1;fontColor=#000000;fillColor=none;" vertex="1" parent="1">
          <mxGeometry x="100" y="680" width="110" height="60" as="geometry" />
        </mxCell>
        <mxCell id="O0PW9jx7jIYoNXfm1WO1-41" value="update form pending review to be published by id" style="rounded=0;whiteSpace=wrap;html=1;fontColor=#000000;fillColor=none;" vertex="1" parent="1">
          <mxGeometry x="230" y="680" width="110" height="60" as="geometry" />
        </mxCell>
        <mxCell id="O0PW9jx7jIYoNXfm1WO1-42" value="update form pending review to be published by id" style="rounded=0;whiteSpace=wrap;html=1;fontColor=#000000;fillColor=none;" vertex="1" parent="1">
          <mxGeometry x="360" y="680" width="110" height="60" as="geometry" />
        </mxCell>
        <mxCell id="O0PW9jx7jIYoNXfm1WO1-43" value="update form to published" style="rounded=0;whiteSpace=wrap;html=1;fontColor=#000000;fillColor=none;" vertex="1" parent="1">
          <mxGeometry x="100" y="750" width="110" height="60" as="geometry" />
        </mxCell>
        <mxCell id="O0PW9jx7jIYoNXfm1WO1-44" value="update form configJson by id" style="rounded=0;whiteSpace=wrap;html=1;fontColor=#000000;fillColor=none;" vertex="1" parent="1">
          <mxGeometry x="230" y="750" width="110" height="60" as="geometry" />
        </mxCell>
        <mxCell id="O0PW9jx7jIYoNXfm1WO1-45" value="update form configJson by id" style="rounded=0;whiteSpace=wrap;html=1;fontColor=#000000;fillColor=none;" vertex="1" parent="1">
          <mxGeometry x="360" y="750" width="110" height="60" as="geometry" />
        </mxCell>
        <mxCell id="O0PW9jx7jIYoNXfm1WO1-46" value="assemble form" style="rounded=0;whiteSpace=wrap;html=1;fontColor=#000000;fillColor=none;" vertex="1" parent="1">
          <mxGeometry x="100" y="820" width="110" height="60" as="geometry" />
        </mxCell>
        <mxCell id="O0PW9jx7jIYoNXfm1WO1-47" value="duplicate form by id" style="rounded=0;whiteSpace=wrap;html=1;fontColor=#000000;fillColor=none;" vertex="1" parent="1">
          <mxGeometry x="230" y="820" width="110" height="60" as="geometry" />
        </mxCell>
        <mxCell id="O0PW9jx7jIYoNXfm1WO1-48" value="fill form history" style="rounded=0;whiteSpace=wrap;html=1;fontColor=#000000;fillColor=none;" vertex="1" parent="1">
          <mxGeometry x="360" y="820" width="110" height="60" as="geometry" />
        </mxCell>
        <mxCell id="O0PW9jx7jIYoNXfm1WO1-50" value="&lt;span style=&quot;font-weight: 400;&quot;&gt;protal&lt;/span&gt;" style="rounded=0;whiteSpace=wrap;html=1;dashed=1;strokeWidth=2;fillColor=none;verticalAlign=top;fontStyle=1;opacity=20;" vertex="1" parent="1">
          <mxGeometry x="90" y="911" width="390" height="99" as="geometry" />
        </mxCell>
        <mxCell id="O0PW9jx7jIYoNXfm1WO1-54" value="get default form by formCode" style="rounded=0;whiteSpace=wrap;html=1;fontColor=#000000;fillColor=none;" vertex="1" parent="1">
          <mxGeometry x="100" y="937" width="110" height="60" as="geometry" />
        </mxCell>
        <mxCell id="O0PW9jx7jIYoNXfm1WO1-55" value="get from by formCode and version" style="rounded=0;whiteSpace=wrap;html=1;fontColor=#000000;fillColor=none;" vertex="1" parent="1">
          <mxGeometry x="230" y="937" width="110" height="60" as="geometry" />
        </mxCell>
        <mxCell id="O0PW9jx7jIYoNXfm1WO1-56" value="list formName versions by formName" style="rounded=0;whiteSpace=wrap;html=1;fontColor=#000000;fillColor=none;" vertex="1" parent="1">
          <mxGeometry x="360" y="937" width="110" height="60" as="geometry" />
        </mxCell>
        <mxCell id="O0PW9jx7jIYoNXfm1WO1-57" value="&lt;span style=&quot;font-weight: 400;&quot;&gt;forms template&lt;/span&gt;" style="rounded=0;whiteSpace=wrap;html=1;dashed=1;strokeWidth=2;fillColor=none;verticalAlign=top;fontStyle=1;opacity=40;" vertex="1" parent="1">
          <mxGeometry x="520" y="340" width="430" height="300" as="geometry" />
        </mxCell>
        <mxCell id="O0PW9jx7jIYoNXfm1WO1-58" value="&lt;span style=&quot;font-weight: 400;&quot;&gt;protal&lt;/span&gt;" style="rounded=0;whiteSpace=wrap;html=1;dashed=1;strokeWidth=2;fillColor=none;verticalAlign=top;fontStyle=1;opacity=20;" vertex="1" parent="1">
          <mxGeometry x="540" y="370" width="390" height="250" as="geometry" />
        </mxCell>
        <mxCell id="O0PW9jx7jIYoNXfm1WO1-59" value="list filter" style="rounded=0;whiteSpace=wrap;html=1;fontColor=#000000;fillColor=none;" vertex="1" parent="1">
          <mxGeometry x="550" y="400" width="110" height="60" as="geometry" />
        </mxCell>
        <mxCell id="O0PW9jx7jIYoNXfm1WO1-60" value="add" style="rounded=0;whiteSpace=wrap;html=1;fontColor=#000000;fillColor=none;" vertex="1" parent="1">
          <mxGeometry x="680" y="400" width="110" height="60" as="geometry" />
        </mxCell>
        <mxCell id="O0PW9jx7jIYoNXfm1WO1-61" value="get by id" style="rounded=0;whiteSpace=wrap;html=1;fontColor=#000000;fillColor=none;" vertex="1" parent="1">
          <mxGeometry x="810" y="400" width="110" height="60" as="geometry" />
        </mxCell>
        <mxCell id="O0PW9jx7jIYoNXfm1WO1-62" value="update by id" style="rounded=0;whiteSpace=wrap;html=1;fontColor=#000000;fillColor=none;" vertex="1" parent="1">
          <mxGeometry x="550" y="470" width="110" height="60" as="geometry" />
        </mxCell>
        <mxCell id="O0PW9jx7jIYoNXfm1WO1-63" value="delete by id" style="rounded=0;whiteSpace=wrap;html=1;fontColor=#000000;fillColor=none;" vertex="1" parent="1">
          <mxGeometry x="680" y="470" width="110" height="60" as="geometry" />
        </mxCell>
        <mxCell id="O0PW9jx7jIYoNXfm1WO1-64" value="assemble form template" style="rounded=0;whiteSpace=wrap;html=1;fontColor=#000000;fillColor=none;" vertex="1" parent="1">
          <mxGeometry x="810" y="470" width="110" height="60" as="geometry" />
        </mxCell>
        <mxCell id="O0PW9jx7jIYoNXfm1WO1-65" value="update template config json by id" style="rounded=0;whiteSpace=wrap;html=1;fontColor=#000000;fillColor=none;" vertex="1" parent="1">
          <mxGeometry x="550" y="540" width="110" height="60" as="geometry" />
        </mxCell>
        <mxCell id="O0PW9jx7jIYoNXfm1WO1-67" value="&lt;span style=&quot;font-weight: 400;&quot;&gt;forms screen&lt;/span&gt;" style="rounded=0;whiteSpace=wrap;html=1;dashed=1;strokeWidth=2;fillColor=none;verticalAlign=top;fontStyle=1;opacity=40;" vertex="1" parent="1">
          <mxGeometry x="520" y="660" width="430" height="210" as="geometry" />
        </mxCell>
        <mxCell id="O0PW9jx7jIYoNXfm1WO1-68" value="&lt;span style=&quot;font-weight: 400;&quot;&gt;protal&lt;/span&gt;" style="rounded=0;whiteSpace=wrap;html=1;dashed=1;strokeWidth=2;fillColor=none;verticalAlign=top;fontStyle=1;opacity=20;" vertex="1" parent="1">
          <mxGeometry x="540" y="690" width="390" height="170" as="geometry" />
        </mxCell>
        <mxCell id="O0PW9jx7jIYoNXfm1WO1-69" value="page filter" style="rounded=0;whiteSpace=wrap;html=1;fontColor=#000000;fillColor=none;" vertex="1" parent="1">
          <mxGeometry x="550" y="720" width="110" height="60" as="geometry" />
        </mxCell>
        <mxCell id="O0PW9jx7jIYoNXfm1WO1-70" value="add" style="rounded=0;whiteSpace=wrap;html=1;fontColor=#000000;fillColor=none;" vertex="1" parent="1">
          <mxGeometry x="680" y="720" width="110" height="60" as="geometry" />
        </mxCell>
        <mxCell id="O0PW9jx7jIYoNXfm1WO1-71" value="get by id" style="rounded=0;whiteSpace=wrap;html=1;fontColor=#000000;fillColor=none;" vertex="1" parent="1">
          <mxGeometry x="810" y="720" width="110" height="60" as="geometry" />
        </mxCell>
        <mxCell id="O0PW9jx7jIYoNXfm1WO1-72" value="update by id" style="rounded=0;whiteSpace=wrap;html=1;fontColor=#000000;fillColor=none;" vertex="1" parent="1">
          <mxGeometry x="550" y="790" width="110" height="60" as="geometry" />
        </mxCell>
        <mxCell id="O0PW9jx7jIYoNXfm1WO1-73" value="delete by id" style="rounded=0;whiteSpace=wrap;html=1;fontColor=#000000;fillColor=none;" vertex="1" parent="1">
          <mxGeometry x="680" y="790" width="110" height="60" as="geometry" />
        </mxCell>
        <mxCell id="O0PW9jx7jIYoNXfm1WO1-77" value="&lt;span style=&quot;font-weight: 400;&quot;&gt;product slp&lt;/span&gt;" style="rounded=0;whiteSpace=wrap;html=1;dashed=1;strokeWidth=2;fillColor=none;verticalAlign=top;fontStyle=1;opacity=40;" vertex="1" parent="1">
          <mxGeometry x="520" y="890" width="430" height="150" as="geometry" />
        </mxCell>
        <mxCell id="O0PW9jx7jIYoNXfm1WO1-78" value="&lt;span style=&quot;font-weight: 400;&quot;&gt;protal&lt;/span&gt;" style="rounded=0;whiteSpace=wrap;html=1;dashed=1;strokeWidth=2;fillColor=none;verticalAlign=top;fontStyle=1;opacity=20;" vertex="1" parent="1">
          <mxGeometry x="540" y="920" width="390" height="100" as="geometry" />
        </mxCell>
        <mxCell id="O0PW9jx7jIYoNXfm1WO1-79" value="page filter" style="rounded=0;whiteSpace=wrap;html=1;fontColor=#000000;fillColor=none;" vertex="1" parent="1">
          <mxGeometry x="550" y="950" width="110" height="60" as="geometry" />
        </mxCell>
        <mxCell id="O0PW9jx7jIYoNXfm1WO1-80" value="get by id" style="rounded=0;whiteSpace=wrap;html=1;fontColor=#000000;fillColor=none;" vertex="1" parent="1">
          <mxGeometry x="680" y="950" width="110" height="60" as="geometry" />
        </mxCell>
        <mxCell id="O0PW9jx7jIYoNXfm1WO1-81" value="&lt;span style=&quot;font-weight: 400;&quot;&gt;base module&lt;/span&gt;" style="rounded=0;whiteSpace=wrap;html=1;dashed=1;strokeWidth=2;fillColor=none;verticalAlign=top;fontStyle=1" vertex="1" parent="1">
          <mxGeometry x="1000" y="50" width="930" height="1010" as="geometry" />
        </mxCell>
        <mxCell id="O0PW9jx7jIYoNXfm1WO1-82" value="&lt;span style=&quot;font-weight: 400;&quot;&gt;mms&lt;/span&gt;" style="rounded=0;whiteSpace=wrap;html=1;dashed=1;strokeWidth=2;fillColor=none;verticalAlign=top;fontStyle=1;opacity=40;" vertex="1" parent="1">
          <mxGeometry x="1020" y="90" width="430" height="230" as="geometry" />
        </mxCell>
        <mxCell id="O0PW9jx7jIYoNXfm1WO1-83" value="&lt;span style=&quot;font-weight: 400;&quot;&gt;web &amp;amp; app&lt;/span&gt;" style="rounded=0;whiteSpace=wrap;html=1;dashed=1;strokeWidth=2;fillColor=none;verticalAlign=top;fontStyle=1;opacity=20;" vertex="1" parent="1">
          <mxGeometry x="1040" y="120" width="390" height="180" as="geometry" />
        </mxCell>
        <mxCell id="O0PW9jx7jIYoNXfm1WO1-84" value="get category info" style="rounded=0;whiteSpace=wrap;html=1;fontColor=#000000;fillColor=none;" vertex="1" parent="1">
          <mxGeometry x="1050" y="150" width="110" height="60" as="geometry" />
        </mxCell>
        <mxCell id="O0PW9jx7jIYoNXfm1WO1-85" value="get merchants info" style="rounded=0;whiteSpace=wrap;html=1;fontColor=#000000;fillColor=none;" vertex="1" parent="1">
          <mxGeometry x="1180" y="150" width="110" height="60" as="geometry" />
        </mxCell>
        <mxCell id="O0PW9jx7jIYoNXfm1WO1-88" value="get static QRCode" style="rounded=0;whiteSpace=wrap;html=1;fontColor=#000000;fillColor=none;" vertex="1" parent="1">
          <mxGeometry x="1310" y="150" width="110" height="60" as="geometry" />
        </mxCell>
        <mxCell id="O0PW9jx7jIYoNXfm1WO1-90" value="get sku info" style="rounded=0;whiteSpace=wrap;html=1;fontColor=#000000;fillColor=none;" vertex="1" parent="1">
          <mxGeometry x="1050" y="220" width="110" height="60" as="geometry" />
        </mxCell>
        <mxCell id="O0PW9jx7jIYoNXfm1WO1-93" value="&lt;span style=&quot;font-weight: 400;&quot;&gt;publicKey&lt;/span&gt;" style="rounded=0;whiteSpace=wrap;html=1;dashed=1;strokeWidth=2;fillColor=none;verticalAlign=top;fontStyle=1;opacity=40;" vertex="1" parent="1">
          <mxGeometry x="1020" y="340" width="430" height="160" as="geometry" />
        </mxCell>
        <mxCell id="O0PW9jx7jIYoNXfm1WO1-94" value="&lt;span style=&quot;font-weight: 400;&quot;&gt;web &amp;amp; app&lt;/span&gt;" style="rounded=0;whiteSpace=wrap;html=1;dashed=1;strokeWidth=2;fillColor=none;verticalAlign=top;fontStyle=1;opacity=20;" vertex="1" parent="1">
          <mxGeometry x="1040" y="370" width="390" height="110" as="geometry" />
        </mxCell>
        <mxCell id="O0PW9jx7jIYoNXfm1WO1-95" value="get public key" style="rounded=0;whiteSpace=wrap;html=1;fontColor=#000000;fillColor=none;" vertex="1" parent="1">
          <mxGeometry x="1050" y="400" width="110" height="60" as="geometry" />
        </mxCell>
        <mxCell id="O0PW9jx7jIYoNXfm1WO1-99" value="&lt;span style=&quot;font-weight: 400;&quot;&gt;screen&lt;/span&gt;" style="rounded=0;whiteSpace=wrap;html=1;dashed=1;strokeWidth=2;fillColor=none;verticalAlign=top;fontStyle=1;opacity=40;" vertex="1" parent="1">
          <mxGeometry x="1020" y="520" width="430" height="520" as="geometry" />
        </mxCell>
        <mxCell id="O0PW9jx7jIYoNXfm1WO1-100" value="&lt;span style=&quot;font-weight: 400;&quot;&gt;protal&lt;/span&gt;" style="rounded=0;whiteSpace=wrap;html=1;dashed=1;strokeWidth=2;fillColor=none;verticalAlign=top;fontStyle=1;opacity=20;" vertex="1" parent="1">
          <mxGeometry x="1040" y="550" width="390" height="170" as="geometry" />
        </mxCell>
        <mxCell id="O0PW9jx7jIYoNXfm1WO1-102" value="&lt;span style=&quot;font-weight: 400;&quot;&gt;web &amp;amp; app&lt;/span&gt;" style="rounded=0;whiteSpace=wrap;html=1;dashed=1;strokeWidth=2;fillColor=none;verticalAlign=top;fontStyle=1;opacity=20;" vertex="1" parent="1">
          <mxGeometry x="1040" y="740" width="390" height="180" as="geometry" />
        </mxCell>
        <mxCell id="O0PW9jx7jIYoNXfm1WO1-109" value="get filter" style="rounded=0;whiteSpace=wrap;html=1;fontColor=#000000;fillColor=none;" vertex="1" parent="1">
          <mxGeometry x="1050" y="770" width="110" height="60" as="geometry" />
        </mxCell>
        <mxCell id="O0PW9jx7jIYoNXfm1WO1-110" value="list all" style="rounded=0;whiteSpace=wrap;html=1;fontColor=#000000;fillColor=none;" vertex="1" parent="1">
          <mxGeometry x="1050" y="850" width="110" height="60" as="geometry" />
        </mxCell>
        <mxCell id="O0PW9jx7jIYoNXfm1WO1-111" value="update module functions" style="rounded=0;whiteSpace=wrap;html=1;fontColor=#000000;fillColor=none;" vertex="1" parent="1">
          <mxGeometry x="1180" y="850" width="110" height="60" as="geometry" />
        </mxCell>
        <mxCell id="O0PW9jx7jIYoNXfm1WO1-112" value="update module functions" style="rounded=0;whiteSpace=wrap;html=1;fontColor=#000000;fillColor=none;" vertex="1" parent="1">
          <mxGeometry x="1310" y="850" width="110" height="60" as="geometry" />
        </mxCell>
        <mxCell id="O0PW9jx7jIYoNXfm1WO1-118" value="&lt;span style=&quot;font-weight: 400;&quot;&gt;theme&lt;/span&gt;" style="rounded=0;whiteSpace=wrap;html=1;dashed=1;strokeWidth=2;fillColor=none;verticalAlign=top;fontStyle=1;opacity=40;" vertex="1" parent="1">
          <mxGeometry x="1470" y="90" width="430" height="410" as="geometry" />
        </mxCell>
        <mxCell id="O0PW9jx7jIYoNXfm1WO1-119" value="&lt;span style=&quot;font-weight: 400;&quot;&gt;protal&lt;/span&gt;" style="rounded=0;whiteSpace=wrap;html=1;dashed=1;strokeWidth=2;fillColor=none;verticalAlign=top;fontStyle=1;opacity=20;" vertex="1" parent="1">
          <mxGeometry x="1490" y="120" width="390" height="240" as="geometry" />
        </mxCell>
        <mxCell id="O0PW9jx7jIYoNXfm1WO1-104" value="page filter" style="rounded=0;whiteSpace=wrap;html=1;fontColor=#000000;fillColor=none;" vertex="1" parent="1">
          <mxGeometry x="1500" y="150" width="110" height="60" as="geometry" />
        </mxCell>
        <mxCell id="O0PW9jx7jIYoNXfm1WO1-105" value="add" style="rounded=0;whiteSpace=wrap;html=1;fontColor=#000000;fillColor=none;" vertex="1" parent="1">
          <mxGeometry x="1630" y="150" width="110" height="60" as="geometry" />
        </mxCell>
        <mxCell id="O0PW9jx7jIYoNXfm1WO1-106" value="get by id" style="rounded=0;whiteSpace=wrap;html=1;fontColor=#000000;fillColor=none;" vertex="1" parent="1">
          <mxGeometry x="1760" y="150" width="110" height="60" as="geometry" />
        </mxCell>
        <mxCell id="O0PW9jx7jIYoNXfm1WO1-107" value="update by id" style="rounded=0;whiteSpace=wrap;html=1;fontColor=#000000;fillColor=none;" vertex="1" parent="1">
          <mxGeometry x="1500" y="220" width="110" height="60" as="geometry" />
        </mxCell>
        <mxCell id="O0PW9jx7jIYoNXfm1WO1-108" value="delete by id" style="rounded=0;whiteSpace=wrap;html=1;fontColor=#000000;fillColor=none;" vertex="1" parent="1">
          <mxGeometry x="1630" y="220" width="110" height="60" as="geometry" />
        </mxCell>
        <mxCell id="O0PW9jx7jIYoNXfm1WO1-124" value="get by theme" style="rounded=0;whiteSpace=wrap;html=1;fontColor=#000000;fillColor=none;" vertex="1" parent="1">
          <mxGeometry x="1760" y="220" width="110" height="60" as="geometry" />
        </mxCell>
        <mxCell id="O0PW9jx7jIYoNXfm1WO1-125" value="page filter" style="rounded=0;whiteSpace=wrap;html=1;fontColor=#000000;fillColor=none;" vertex="1" parent="1">
          <mxGeometry x="1050" y="580" width="110" height="60" as="geometry" />
        </mxCell>
        <mxCell id="O0PW9jx7jIYoNXfm1WO1-126" value="add" style="rounded=0;whiteSpace=wrap;html=1;fontColor=#000000;fillColor=none;" vertex="1" parent="1">
          <mxGeometry x="1180" y="580" width="110" height="60" as="geometry" />
        </mxCell>
        <mxCell id="O0PW9jx7jIYoNXfm1WO1-127" value="get by id" style="rounded=0;whiteSpace=wrap;html=1;fontColor=#000000;fillColor=none;" vertex="1" parent="1">
          <mxGeometry x="1310" y="580" width="110" height="60" as="geometry" />
        </mxCell>
        <mxCell id="O0PW9jx7jIYoNXfm1WO1-128" value="update by id" style="rounded=0;whiteSpace=wrap;html=1;fontColor=#000000;fillColor=none;" vertex="1" parent="1">
          <mxGeometry x="1050" y="650" width="110" height="60" as="geometry" />
        </mxCell>
        <mxCell id="O0PW9jx7jIYoNXfm1WO1-129" value="delete by id" style="rounded=0;whiteSpace=wrap;html=1;fontColor=#000000;fillColor=none;" vertex="1" parent="1">
          <mxGeometry x="1180" y="650" width="110" height="60" as="geometry" />
        </mxCell>
        <mxCell id="O0PW9jx7jIYoNXfm1WO1-130" value="update by theme" style="rounded=0;whiteSpace=wrap;html=1;fontColor=#000000;fillColor=none;" vertex="1" parent="1">
          <mxGeometry x="1500" y="290" width="110" height="60" as="geometry" />
        </mxCell>
        <mxCell id="O0PW9jx7jIYoNXfm1WO1-131" value="&lt;span style=&quot;font-weight: 400;&quot;&gt;web &amp;amp; app&lt;/span&gt;" style="rounded=0;whiteSpace=wrap;html=1;dashed=1;strokeWidth=2;fillColor=none;verticalAlign=top;fontStyle=1;opacity=20;" vertex="1" parent="1">
          <mxGeometry x="1490" y="370" width="390" height="110" as="geometry" />
        </mxCell>
        <mxCell id="O0PW9jx7jIYoNXfm1WO1-132" value="get current theme" style="rounded=0;whiteSpace=wrap;html=1;fontColor=#000000;fillColor=none;" vertex="1" parent="1">
          <mxGeometry x="1500" y="395" width="110" height="60" as="geometry" />
        </mxCell>
        <mxCell id="O0PW9jx7jIYoNXfm1WO1-133" value="get by theme" style="rounded=0;whiteSpace=wrap;html=1;fontColor=#000000;fillColor=none;" vertex="1" parent="1">
          <mxGeometry x="1630" y="395" width="110" height="60" as="geometry" />
        </mxCell>
      </root>
    </mxGraphModel>
  </diagram>
</mxfile>
